<?xml version="1.0" encoding="utf-8"?>
<!-- Generator: Adobe Illustrator 18.1.1, SVG Export Plug-In . SVG Version: 6.00 Build 0)  -->
<svg version="1.1" id="Calque_1" xmlns="http://www.w3.org/2000/svg" xmlns:xlink="http://www.w3.org/1999/xlink" x="0px" y="0px"
	 viewBox="0 0 1328.2 583.6" enable-background="new 0 0 1328.2 583.6" xml:space="preserve">
<g>
	<g>
		<path fill="#132349" d="M498.6,531.4h6.5h16.2c15.3,0,20.4,4.6,20.4,13.7c0,8.9-5.8,14.8-18.1,14.8h-18.4v22.3h-7v-50.8H498.6z
			 M521.3,538.5h-16.2v14.4h18.4c11.1,0,11.1-5.4,11.1-7.7C534.7,541.7,534.7,538.5,521.3,538.5z"/>
		<path fill="#132349" d="M586.9,569.6l-6.4,12.6h-7.9l25.7-50.7h9.1l25.4,50.7H625l-6.3-12.6H586.9z M603,538.1l-12.5,24.5h24.8
			L603,538.1z"/>
		<path fill="#132349" d="M705.6,531.4c8.1,0,14.7,6.6,14.7,14.7c0,5.8-3.3,10.7-8.1,13.2c1.9,2,3.4,4.7,4.4,7.9l4.7,15.1h-7.4
			l-4-12.9c-1.9-5.8-5.3-8.4-10.8-8.4H680v21.3h-7v-50.8H705.6z M680,538.5v15.4h25.5c4.2,0,7.7-3.4,7.7-7.7c0-4.2-3.4-7.7-7.7-7.7
			H680z"/>
		<path fill="#132349" d="M772.6,531.4v50.8h-7v-50.8H772.6z"/>
		<path fill="#132349" d="M862.3,544.9h-7.2c-2-6.5-9.3-7.9-15.7-7.8c-3.3,0-13.9,0.6-13.9,7.7c0,4.8,4.5,7.2,14.3,7.9
			c8.9,0.6,17.2,1.2,21.8,6.6c2.1,2.6,3,5.8,2.7,9.7c-0.6,5.4-4.4,14.6-23.8,14.6c-14.4,0-23.3-6.1-24-16.5h7c0.6,4,3.8,9.4,17,9.4
			c6,0,16-1.1,16.7-8.2c0.8-7.2-7.5-7.9-16.5-8.4c-3.8-0.3-8.6-0.6-12.9-2.3c-6-2.5-9.4-7-9.4-12.7c0-11,10.7-14.7,21.9-14.7
			C852.6,530.1,860.6,535.4,862.3,544.9z"/>
	</g>
	<path fill="#132349" d="M248.6,439.4h-54.4l175-434.3h54.4L248.6,439.4z"/>
	<path fill="#132349" d="M383.3,439.4h-54.4l175-434.3h54.4L383.3,439.4z"/>
	<path fill="#132349" d="M753.1,220.5c0.1,65.2-3.2,111.3-9.8,138.3c-13.6,57.1-42.3,85.6-86.1,85.6c-44.6,0-73.6-28.4-86.9-85.5
		c-6.2-26.1-9.4-72.3-9.4-138.3c-0.1-65.6,3.2-111.7,9.8-138.3C584.3,27.5,613,0,656.8,0c44.2,0,73,27.6,86.2,82.9
		C749.7,109.9,753,155.8,753.1,220.5z M697.9,220.6C697.8,110.8,684.1,55.9,656.9,56c-20.3,0-33.3,23.6-39,70.8
		c-2.1,17.2-3.1,48.5-3,93.9c0,45.9,1.1,77.4,3.2,94.6c5.8,48.9,18.9,73.3,39.1,73.3c19.8,0,32.4-24.5,37.7-73.4
		C697,298,698,266.5,697.9,220.6z"/>
	<polygon fill="#132349" points="163.3,59.6 163.3,5.1 0,5.1 0,439.3 163.3,439.4 163.3,385 54.4,385 54.4,249.5 136.1,249.5 
		136.1,195.1 54.4,195 54.4,59.6 	"/>
	<polygon fill="#132349" points="1328.2,59.6 1328.2,5.1 1164.9,5.1 1164.9,439.3 1328.2,439.4 1328.2,385 1219.3,385 1219.3,249.5 
		1301,249.5 1301,195.1 1219.3,195 1219.3,59.6 	"/>
	<polygon fill="#132349" points="776.6,5.1 776.6,59.5 885.4,59.5 776.6,385 776.6,439.4 939.9,439.4 939.9,385 831,385 939.9,59.5 
		939.9,5.1 	"/>
	<polygon fill="#132349" points="970.7,5.1 970.7,59.5 1079.6,59.5 970.7,385 970.7,439.4 1134,439.4 1134,385 1025.2,385 
		1134,59.5 1134,5.1 	"/>
</g>
</svg>
